# xmcd CD database file
#
# Track frame offsets:
#	150
#	15957
#	27959
#	38609
#	57784
#	71404
#	87129
#	103904
#	115304
#	130482
#	143692
#
# Disc length: 2047 seconds
#
# Revision: 1
# Processed by: cddbd v1.5.2PL0 Copyright (c) Steve Scherf et al.
# Submitted via: CDex 1.51
#
DISCID=8907fd0b
DTITLE=Corduroy Utd. - Oh Eira
DYEAR=2004
DGENRE=Indie
TTITLE0=Daddy's Boy
TTITLE1=Details
TTITLE2=Elvis In Town
TTITLE3=I Saw Love
TTITLE4=In A Dream
TTITLE5=The AntiLounge Manifesto
TTITLE6=Make It Up
TTITLE7=This Joyful Disease
TTITLE8=Kill, Mrs. Buckenhauer
TTITLE9=After The Party
TTITLE10=Hey Girl! (A Song For Perni)
EXTD=YEAR: 2004
EXTT0=
EXTT1=
EXTT2=
EXTT3=
EXTT4=
EXTT5=
EXTT6=
EXTT7=
EXTT8=
EXTT9=
EXTT10=
PLAYORDER=
